<?xml version="1.0" encoding="utf-8"?>
<!-- Generator: Adobe Illustrator 25.2.0, SVG Export Plug-In . SVG Version: 6.00 Build 0)  -->
<svg version="1.1" id="Layer_1" xmlns="http://www.w3.org/2000/svg" xmlns:xlink="http://www.w3.org/1999/xlink" x="0px" y="0px"
	 viewBox="0 0 20 20" style="enable-background:new 0 0 20 20;" xml:space="preserve">
<style type="text/css">
	.st0{fill:url(#SVGID_1_);}
	.st1{clip-path:url(#SVGID_3_);}
</style>
<g>
	<linearGradient id="SVGID_1_" gradientUnits="userSpaceOnUse" x1="12.7852" y1="7.5496" x2="1.8649" y2="11.8385">
		<stop  offset="0" style="stop-color:#FFFFFF"/>
		<stop  offset="1" style="stop-color:#000000"/>
	</linearGradient>
	<path class="st0" d="M5.2,3.1L5.2,3.1C4.7,3,4.2,3.4,4.1,3.9L2,17.8c-0.1,0.5,0.3,1.1,0.8,1.1h0c0.5,0.1,1.1-0.3,1.1-0.8L6,4.2
		C6.1,3.7,5.8,3.2,5.2,3.1z"/>
</g>
<g>
	<g>
		<defs>
			<path id="SVGID_2_" d="M4.8,9c0,0.1,0.1,0.1,0.2,0.2C6.2,9.4,7.3,9.7,8.4,10c0.3,0.1,0.5,0.1,0.7,0.3c0.2,0.2,0.3,0.5,0.2,0.7
				c-0.2,0.3-0.6,0.3-0.7,0.6c-0.1,0.2,0,0.4,0.2,0.5c0.1,0.1,0.3,0.2,0.5,0.2c2,0.7,4,1.4,6.1,1.5c0.2,0,0.5,0,0.7-0.2
				c0.1-0.1,0.1-0.3,0.1-0.4c0.3-1.8,0.4-3.6,0.4-5.4c-2.3-0.6-4.8-0.3-7-1.3C9.4,6.4,9.2,6.3,9.3,6.2C9.3,6.1,9.4,6,9.5,6
				c0.3-0.1,0.6-0.1,0.8-0.2c0.3-0.2,0.5-0.7,0.3-1c-0.2-0.4-0.7-0.5-1.2-0.5C8.1,4.1,6.8,3.9,5.5,3.8C5.3,5.6,4.6,7.3,4.8,9z"/>
		</defs>
		<clipPath id="SVGID_3_">
			<use xlink:href="#SVGID_2_"  style="overflow:visible;"/>
		</clipPath>
	</g>
</g>
</svg>
